<?xml version="1.0" encoding="utf-8"?>
<!-- Generator: Adobe Illustrator 27.5.0, SVG Export Plug-In . SVG Version: 6.00 Build 0)  -->
<svg version="1.1" xmlns="http://www.w3.org/2000/svg" xmlns:xlink="http://www.w3.org/1999/xlink" x="0px" y="0px"
	 viewBox="0 0 500 500" style="enable-background:new 0 0 500 500;" xml:space="preserve">

<g id="Objects">
	<g>
		<g>
			
				<linearGradient id="SVGID_00000039852821987475538530000012767080211766569122_" gradientUnits="userSpaceOnUse" x1="137.1546" y1="318.5108" x2="355.7548" y2="76.9002">
				<stop  offset="0" style="stop-color:#8E54E9"/>
				<stop  offset="0.5936" style="stop-color:#6567E7"/>
				<stop  offset="1" style="stop-color:#4776E6"/>
			</linearGradient>
			<path style="fill:url(#SVGID_00000039852821987475538530000012767080211766569122_);" d="M318.707,140.078
				c-0.044,0.044-0.087,0.087-0.131,0.138c0,0,4.657-3.158,10.281-7.837c-6.469,28.735-23.67,60.031-65.153,77.443
				c-26.363,11.068-54.064,16.037-67.591,23.772c-23.066,13.178-26.348,31.027-22.841,47.53c0,0-0.036-0.051-0.102-0.16
				c-1.31-2.125-14.582-25.213,5.421-55.468c8.252-12.486,39.759-37.335,91.429-35.131c-0.553-0.247-3.056-1.448-11.81-3.966
				c-2.197-0.633-4.497-1.23-6.796-1.732c9.998-4.228,19.734-9.307,28.473-16.459c47.632-38.995,47.559-81.955,49.371-99.884
				c0,0,4.213,17.653,2.809,41.054C331.376,120.861,326.704,131.812,318.707,140.078z"/>
			
				<linearGradient id="SVGID_00000087396641961838064230000016032192039299692984_" gradientUnits="userSpaceOnUse" x1="193.2787" y1="268.4717" x2="318.1774" y2="176.4409">
				<stop  offset="0" style="stop-color:#4776E6"/>
				<stop  offset="0.483" style="stop-color:#479FE6"/>
				<stop  offset="1" style="stop-color:#47CFE6"/>
			</linearGradient>
			<path style="fill:url(#SVGID_00000087396641961838064230000016032192039299692984_);" d="M318.671,171.512
				c0,0.014-0.007,0.029-0.014,0.058c-0.182,0.888-1.848,8.979-7.247,19.843c-4.693,9.445-12.69,16.947-22.608,20.534
				c-0.051,0.015-0.102,0.036-0.153,0.051l0.131-0.022c0.808-0.116,5.399-0.822,11.053-2.212c-0.189,0.255-0.4,0.495-0.589,0.764
				c-23.263,32.482-60.78,29.644-60.991,29.644c0,0,11.421,2.841,25.779-0.584c-16.813,8.971-31.593,12.757-49.253,15.187
				c0,0,0,0-0.007-0.007c-0.211-0.182-3.987-3.5-6.287-9.459c-1.193-3.071-1.979-6.84-1.688-11.242v-0.007
				c5.96-2.372,13.571-4.664,21.989-7.204c11.679-3.522,24.929-7.509,37.983-12.988
				C290.839,203.762,306.803,186.684,318.671,171.512z"/>
			
				<linearGradient id="SVGID_00000013914692919901235170000014594841617716095653_" gradientUnits="userSpaceOnUse" x1="199.2178" y1="276.543" x2="324.1457" y2="184.4906">
				<stop  offset="0" style="stop-color:#4776E6"/>
				<stop  offset="0.483" style="stop-color:#479FE6"/>
				<stop  offset="1" style="stop-color:#47CFE6"/>
			</linearGradient>
			<path style="fill:url(#SVGID_00000013914692919901235170000014594841617716095653_);" d="M215.571,271.294
				c-2.801,3.718-9.183,12.828-10.129,14.065c0.385-2.038,1.666-8.39,3.573-13.883c0.335-0.953,0.604-1.688,0.822-2.241
				c0.08,0.015,0.175,0.022,0.262,0.022c1.23,0.029,2.241-0.946,2.263-2.176c0.022-1.215-0.953-2.219-2.176-2.248
				c-1.215-0.022-2.227,0.953-2.248,2.168c-0.015,0.771,0.364,1.455,0.946,1.863c-1.841,5.108-3.143,13.665-3.558,16.423
				c-0.291-2.263-1.521-12.406-2.037-16.794c-0.146-1.346,0.255-2.699,1.113-3.747l11.548-13.934l0.167,3.777v0.022l0.568,13.003
				C216.765,268.937,216.372,270.239,215.571,271.294z"/>
			<path style="fill:#645AE9;" d="M315.135,297.875c-5.967-11.875-18.795-17.966-31.587-17.696
				c-12.836,0.277-25.133,4.919-37.204,9.292c-15.186,5.326-33.304,13.701-49.72,10.609c-2.561-0.509-5.152-1.317-7.64-2.409
				c-7.255-3.18-13.592-8.761-15.71-16.445c5.254,8.15,14.888,12.239,24.252,12.981c9.467,0.859,18.453-2.277,27.527-5.334
				c18.911-6.491,38.092-15.819,58.735-14.233c8.157,0.589,16.372,3.769,22.47,9.146c-1.244-1.324-2.518-2.619-3.849-3.842
				c-6.803-6.389-13.622-9.336-23.088-9.743c-22.601-0.924-43.164,10.092-64.04,16.867c15.55-9.321,31.725-18.198,50.273-20.876
				c14.866-2.066,28.982,0.466,38.471,12.355c2.641,3.136,8.899,13.017,10.994,18.991
				C315.084,297.722,315.128,297.839,315.135,297.875z"/>
			
				<linearGradient id="SVGID_00000108292457730069344480000010680953822134106258_" gradientUnits="userSpaceOnUse" x1="337.3042" y1="79.0763" x2="212.8027" y2="200.2904">
				<stop  offset="0" style="stop-color:#4776E6"/>
				<stop  offset="0.1822" style="stop-color:#477CE6"/>
				<stop  offset="0.4228" style="stop-color:#478DE6"/>
				<stop  offset="0.6962" style="stop-color:#47A8E6"/>
				<stop  offset="0.9918" style="stop-color:#47CEE6"/>
				<stop  offset="1" style="stop-color:#47CFE6"/>
			</linearGradient>
			<path style="fill:url(#SVGID_00000108292457730069344480000010680953822134106258_);" d="M329.258,68.325
				c0,0,0,0.022-0.007,0.073c-0.036,0.342-0.073,0.691-0.102,1.048c-0.022,0.131-0.029,0.262-0.044,0.393
				c-0.015,0.138-0.029,0.284-0.051,0.444c-1.928,18.977-6.148,54.617-54.231,92.207c-17.216,13.469-39.009,21.08-59.325,29.47
				c-2.962,1.222-5.887,2.459-8.761,3.733c1.477-4.904,3.311-9.401,5.421-13.549c8.331-16.372,22.579-28.946,39.569-35.931
				c9.307-3.835,21.276-7.939,31.798-9.001c0.575-0.051,0.939-0.087,1.062-0.095c0.015,0,0.029-0.007,0.044-0.007
				c0,0-0.007,0-0.029,0c-0.611-0.08-10.638-1.251-21.407-0.851c4.25-2.401,8.368-4.715,12.224-7.044
				c40.486-24.529,53.394-59.681,53.831-60.882C329.258,68.325,329.258,68.325,329.258,68.325z"/>
			<path style="fill:#FFFFFF;" d="M326.597,139.671c-7.951,27.515-24.677,49.507-65.154,67.559
				c-25.723,11.474-52.752,16.626-65.951,24.645c-22.506,13.661-25.924,31.039-22.502,48.148c0,0,0.064,0.113,0,0
				c-1.449-4.051-16.535-50.98,51.496-68.368C306.306,190.751,316.518,165.43,326.597,139.671z"/>
			
				<linearGradient id="SVGID_00000072990756054909986200000007033609709022612131_" gradientUnits="userSpaceOnUse" x1="308.5865" y1="155.756" x2="195.9988" y2="247.2506">
				<stop  offset="0" style="stop-color:#8E54E9"/>
				<stop  offset="0.5936" style="stop-color:#6567E7"/>
				<stop  offset="1" style="stop-color:#4776E6"/>
			</linearGradient>
			<path style="fill:url(#SVGID_00000072990756054909986200000007033609709022612131_);" d="M328.858,132.38
				c-6.469,28.735-23.67,60.031-65.153,77.443c-26.363,11.068-54.064,16.037-67.591,23.772
				c-23.066,13.178-26.348,31.027-22.841,47.53c0,0-0.036-0.051-0.102-0.16c-1.484-3.907-17.762-51.051,51.961-67.824
				C308.986,192.978,318.671,159.805,328.858,132.38z"/>
			
				<linearGradient id="SVGID_00000149373431402358612140000014266488976886835872_" gradientUnits="userSpaceOnUse" x1="209.7616" y1="245.9625" x2="316.3911" y2="172.8215">
				<stop  offset="0" style="stop-color:#4776E6"/>
				<stop  offset="0.2212" style="stop-color:#4784E6;stop-opacity:0.7788"/>
				<stop  offset="0.6402" style="stop-color:#47AAE6;stop-opacity:0.3598"/>
				<stop  offset="1" style="stop-color:#47CFE6;stop-opacity:0"/>
			</linearGradient>
			<path style="opacity:0.3;fill:url(#SVGID_00000149373431402358612140000014266488976886835872_);" d="M318.671,171.512
				c0,0.014-0.007,0.029-0.014,0.058c-18.649,41.76-76.468,56.24-93.931,61.581c-17.209,5.261-11.289,20.017-11.085,20.475
				c-0.211-0.182-3.18-3.285-5.156-8.316c-1.204-3.066-1.979-6.84-1.688-11.242v-0.007c5.96-2.372,13.571-4.664,21.989-7.204
				c11.679-3.522,24.929-7.509,37.983-12.988C290.839,203.762,306.803,186.684,318.671,171.512z"/>
			
				<linearGradient id="SVGID_00000142866971322900248000000004610557574637115837_" gradientUnits="userSpaceOnUse" x1="243.1865" y1="209.8678" x2="248.6653" y2="113.7161">
				<stop  offset="0" style="stop-color:#4776E6"/>
				<stop  offset="0.2212" style="stop-color:#4784E6;stop-opacity:0.7788"/>
				<stop  offset="0.6402" style="stop-color:#47AAE6;stop-opacity:0.3598"/>
				<stop  offset="1" style="stop-color:#47CFE6;stop-opacity:0"/>
			</linearGradient>
			<path style="opacity:0.3;fill:url(#SVGID_00000142866971322900248000000004610557574637115837_);" d="M284.588,137.117
				c-57.571,9.911-69.09,54.843-69.09,54.843c-2.962,1.222-5.887,2.459-8.761,3.733c1.477-4.904,3.311-9.401,5.421-13.549
				c8.331-16.372,22.579-28.946,39.569-35.931c9.307-3.835,21.276-7.939,31.798-9.001
				C284.101,137.16,284.465,137.124,284.588,137.117z"/>
			
				<linearGradient id="SVGID_00000142152319663829143320000010394633374462755203_" gradientUnits="userSpaceOnUse" x1="188.9832" y1="288.9532" x2="315.1349" y2="288.9532">
				<stop  offset="0" style="stop-color:#4776E6"/>
				<stop  offset="0.2212" style="stop-color:#4784E6;stop-opacity:0.7788"/>
				<stop  offset="0.6402" style="stop-color:#47AAE6;stop-opacity:0.3598"/>
				<stop  offset="1" style="stop-color:#47CFE6;stop-opacity:0"/>
			</linearGradient>
			<path style="opacity:0.78;fill:url(#SVGID_00000142152319663829143320000010394633374462755203_);" d="M315.135,297.875
				c-5.967-11.875-18.795-17.966-31.587-17.696c-12.836,0.277-25.133,4.919-37.204,9.292c-15.186,5.326-33.304,13.701-49.72,10.609
				c-2.561-0.509-5.152-1.317-7.64-2.409c19.921,6.415,38.424-3.748,60.69-12.313c7.422-2.855,15.014-5.994,24.833-7.582
				c27.568-4.458,39.348,16.643,40.512,19.764C315.084,297.722,315.128,297.839,315.135,297.875z"/>
			
				<linearGradient id="SVGID_00000018930049589773524740000003815848296943723393_" gradientUnits="userSpaceOnUse" x1="283.9512" y1="216.3559" x2="297.7108" y2="205.2925">
				<stop  offset="0" style="stop-color:#4776E6"/>
				<stop  offset="0.2212" style="stop-color:#4784E6;stop-opacity:0.7788"/>
				<stop  offset="0.6402" style="stop-color:#47AAE6;stop-opacity:0.3598"/>
				<stop  offset="1" style="stop-color:#47CFE6;stop-opacity:0"/>
			</linearGradient>
			<path style="opacity:0.3;fill:url(#SVGID_00000018930049589773524740000003815848296943723393_);" d="M299.832,209.765
				c-4.641,3.066-22.993,6.132-22.993,6.132l11.81-3.898l0.131-0.022C289.587,211.86,294.179,211.154,299.832,209.765z"/>
			
				<linearGradient id="SVGID_00000141414511366600979500000010963335642445443223_" gradientUnits="userSpaceOnUse" x1="340.5868" y1="83.9862" x2="251.5576" y2="179.3158">
				<stop  offset="0" style="stop-color:#4776E6"/>
				<stop  offset="0.2212" style="stop-color:#4784E6;stop-opacity:0.7788"/>
				<stop  offset="0.6402" style="stop-color:#47AAE6;stop-opacity:0.3598"/>
				<stop  offset="1" style="stop-color:#47CFE6;stop-opacity:0"/>
			</linearGradient>
			<path style="opacity:0.3;fill:url(#SVGID_00000141414511366600979500000010963335642445443223_);" d="M251.415,184.668
				c9.998-4.228,19.734-9.307,28.473-16.459c47.632-38.995,47.559-81.955,49.371-99.884
				C328.858,170.215,251.415,184.668,251.415,184.668z"/>
			
				<linearGradient id="SVGID_00000065049524358418155510000005767301952043011220_" gradientUnits="userSpaceOnUse" x1="249.6673" y1="140.2012" x2="334.7245" y2="84.5237">
				<stop  offset="0" style="stop-color:#4776E6"/>
				<stop  offset="0.2212" style="stop-color:#4784E6;stop-opacity:0.7788"/>
				<stop  offset="0.6402" style="stop-color:#47AAE6;stop-opacity:0.3598"/>
				<stop  offset="1" style="stop-color:#47CFE6;stop-opacity:0"/>
			</linearGradient>
			<path style="fill:url(#SVGID_00000065049524358418155510000005767301952043011220_);" d="M329.258,68.325
				c0,0,0,0.022-0.007,0.073c-0.036,0.342-0.073,0.691-0.102,1.048c-0.022,0.131-0.029,0.262-0.044,0.393
				c-0.015,0.138-0.029,0.284-0.051,0.444c-13.221,43.63-43.68,66.252-44.452,66.827c-0.611-0.08-10.638-1.251-21.407-0.851
				c4.25-2.401,8.368-4.715,12.224-7.044c40.486-24.529,53.394-59.681,53.831-60.882C329.258,68.325,329.258,68.325,329.258,68.325z
				"/>
		</g>
	</g>
</g>

</svg>
